<svg width="12" height="13" viewBox="0 0 12 13" fill="none" xmlns="http://www.w3.org/2000/svg">
<path d="M6 13C5.47664 13 5.05296 12.8535 4.72897 12.5606C4.41745 12.2554 4.26168 11.8526 4.26168 11.3521V2.72817H1.62617C1.07788 2.72817 0.666667 2.61831 0.392523 2.39859C0.130841 2.16667 0 1.81878 0 1.35493C0 0.89108 0.130841 0.549296 0.392523 0.329578C0.666667 0.109859 1.07788 0 1.62617 0H10.3738C10.9221 0 11.3271 0.109859 11.5888 0.329578C11.8629 0.549296 12 0.89108 12 1.35493C12 1.81878 11.8629 2.16667 11.5888 2.39859C11.3271 2.61831 10.9221 2.72817 10.3738 2.72817H7.73832V11.3521C7.73832 11.8526 7.57632 12.2554 7.25234 12.5606C6.94081 12.8535 6.52336 13 6 13Z" fill="white"/>
</svg>
