<svg width="1440" height="642" viewBox="0 0 1440 642" fill="none" xmlns="http://www.w3.org/2000/svg">
<g filter="url(#filter0_f_26_676)">
<ellipse rx="346.604" ry="264.854" transform="matrix(1 0 0 -1 1056.04 383.62)" fill="#AAEBFF"/>
<ellipse rx="401.683" ry="307.113" transform="matrix(1 0 0 -1 1093.32 487.802)" fill="#C1BCFF"/>
<ellipse rx="401.683" ry="307.113" transform="matrix(1 0 0 -1 178.683 416.672)" fill="#C1BCFF"/>
<ellipse rx="312.667" ry="238.912" transform="matrix(1 0 0 -1 128.609 402.865)" fill="#FFD9DD"/>
<ellipse rx="312.667" ry="238.912" transform="matrix(1 0 0 -1 553.66 407.885)" fill="#DEB5FF"/>
<ellipse rx="284.85" ry="217.573" transform="matrix(1 0 0 -1 283.275 180.688)" fill="#C173FF"/>
<ellipse rx="284.85" ry="217.573" transform="matrix(1 0 0 -1 473.544 270.228)" fill="#C173FF"/>
<ellipse rx="103.481" ry="53.1381" transform="matrix(1 0 0 -1 163.104 383.618)" fill="#FFDA58"/>
<ellipse rx="103.481" ry="53.1381" transform="matrix(1 0 0 -1 163.104 403.701)" fill="#FFDD65"/>
</g>
<defs>
<filter id="filter0_f_26_676" x="-506.591" y="-320.476" width="2285.18" height="1398.98" filterUnits="userSpaceOnUse" color-interpolation-filters="sRGB">
<feFlood flood-opacity="0" result="BackgroundImageFix"/>
<feBlend mode="normal" in="SourceGraphic" in2="BackgroundImageFix" result="shape"/>
<feGaussianBlur stdDeviation="141.795" result="effect1_foregroundBlur_26_676"/>
</filter>
</defs>
</svg>
